<?xml version="1.0" encoding="utf-8"?>
<!-- Generator: Adobe Illustrator 23.0.5, SVG Export Plug-In . SVG Version: 6.00 Build 0)  -->
<svg version="1.1" id="Capa_1" xmlns="http://www.w3.org/2000/svg" xmlns:xlink="http://www.w3.org/1999/xlink" x="0px" y="0px"
	 viewBox="0 0 500 500" style="enable-background:new 0 0 500 500;" xml:space="preserve">
<style type="text/css">
	.st0{display:none;}
	.st1{fill:#FFFFFF;}
	.st2{display:inline;fill:#953E9B;}
	.st3{display:inline;fill:#69227A;}
	.st4{display:inline;fill:#832D8F;}
	.st5{display:inline;fill:#FDFCFE;}
	.st6{display:inline;fill:#FBF8FB;}
	.st7{display:inline;fill:#853191;}
	.st8{fill:#5C2D8C;}
	.st9{display:none;fill:#FFFFFF;}
	.st10{fill:#6D4395;}
	.st11{fill:#FDFCFD;}
	.st12{fill:#FEFEFE;}
	.st13{fill:#FEFDFE;}
	.st14{fill:#6C4295;}
	.st15{fill:#F0EFF1;}
	.st16{fill:#F0EFF0;}
	.st17{fill:#ECE9EE;}
	.st18{fill:#FDFDFD;}
	.st19{fill:#6E4396;}
	.st20{fill:#6D4396;}
</style>
<g class="st0">
	<rect y="4.04" width="500" height="495.96"/>
	<path class="st1" d="M250.46,500.98c-81.85,0-163.7-0.02-245.54,0.09c-3.28,0-4.03-0.56-4.03-3.97
		C0.99,333.08,0.99,169.06,0.86,5.03c0-3.78,1.09-4.13,4.36-4.13C169.08,0.99,332.94,0.99,496.8,0.89c3.44,0,4.28,0.61,4.28,4.21
		c-0.12,163.86-0.12,327.72,0,491.58c0,3.87-1.1,4.39-4.59,4.38C414.48,500.95,332.47,500.98,250.46,500.98z M378.94,325.23
		c2.42-2.91,2.96-6.43,3.02-10.01c0.12-6.83,0.13-13.67,0.13-20.5c0.01-34.01,0.02-68.02-0.02-102.03
		c-0.01-5.18,0.14-10.45-3.29-14.9c-2.13-5.37-6.74-8.18-11.4-10.86c-34.36-19.82-68.75-39.58-103.1-59.39
		c-9.25-5.34-18.48-5.56-27.76-0.22c-35.23,20.26-70.45,40.52-105.65,60.83c-8.29,4.78-12.62,12.16-12.64,21.68
		c-0.1,41.33-0.07,82.65,0,123.98c0.01,4.06,0.55,8.11,3.25,11.48c1.47,4.47,4.88,7.3,8.69,9.5
		c35.72,20.67,71.48,41.28,107.28,61.81c8.43,4.83,17.14,4.79,25.55-0.04c35.66-20.45,71.28-40.98,106.87-61.56
		C373.81,332.71,377.42,329.88,378.94,325.23z"/>
	<path class="st2" d="M121.47,325.28c-2.69-3.37-3.24-7.42-3.25-11.48c-0.06-41.33-0.09-82.65,0-123.98
		c0.02-9.52,4.35-16.89,12.64-21.68c35.2-20.31,70.42-40.57,105.65-60.83c9.28-5.34,18.51-5.12,27.76,0.22
		c34.36,19.82,68.74,39.58,103.1,59.39c4.65,2.68,9.26,5.5,11.4,10.86c-12.19,7.09-24.32,14.3-36.61,21.21
		c-5.17,2.9-9.72,7.11-15.9,8.02c-0.77-1.02-1.58-2-2.29-3.06c-15.66-23.17-37.35-37.17-65.15-39.59
		c-33.46-2.91-60.83,9.66-80.52,37.09c-12.54,17.47-17.53,37.27-15.46,58.89c1.21,12.69,5.43,24.25,11.03,35.48
		c-10.38,5.97-20.67,12.12-31.18,17.86C135.62,317.57,129.16,322.56,121.47,325.28z"/>
	<path class="st3" d="M121.47,325.28c7.69-2.72,14.15-7.71,21.22-11.57c10.51-5.74,20.8-11.89,31.18-17.86
		c0.75,1.04,1.55,2.04,2.24,3.11c24.27,37.71,72.14,51.28,112.47,31.81c16.11-7.78,28.38-19.79,37.79-34.86
		c8.57,4.9,17.05,9.99,25.75,14.65c8.99,4.81,17.2,11.03,26.82,14.68c-1.52,4.65-5.13,7.48-9.08,9.76
		c-35.59,20.58-71.21,41.11-106.87,61.56c-8.42,4.83-17.12,4.88-25.55,0.04c-35.8-20.53-71.56-41.14-107.28-61.81
		C126.36,332.58,122.94,329.75,121.47,325.28z"/>
	<path class="st4" d="M378.94,325.23c-9.62-3.65-17.84-9.86-26.82-14.68c-8.7-4.66-17.17-9.75-25.75-14.65
		c-0.52-0.59-0.92-1.38-1.56-1.75c-11.43-6.67-22.9-13.27-34.34-19.94c-1.04-0.61-2-1.01-3.18-0.57c-1.69-1.2-3.32-2.51-5.09-3.6
		c-9.99-6.15-20.58-11.3-30.24-18.02c5.89-5.75,13.83-8.23,20.47-12.78c4.84-3.31,10.78-4.98,14.66-9.73c1,0.17,1.89-0.08,2.77-0.59
		c11.48-6.64,22.98-13.25,34.47-19.86c0.86-0.49,1.65-1.01,1.92-2.05c6.19-0.91,10.74-5.12,15.9-8.02
		c12.29-6.91,24.42-14.12,36.61-21.21c3.43,4.45,3.29,9.71,3.29,14.9c0.03,34.01,0.03,68.02,0.02,102.03c0,6.83,0,13.67-0.13,20.5
		C381.9,318.8,381.36,322.32,378.94,325.23z M340.67,233.74c-6.62,0-6.62,0-5.64-6.09c0.8-4.99,0.24-5.41-4.63-5.02
		c-3.37,0.27-2.8,2.96-2.94,4.64c-0.39,4.49-1.49,7.52-6.97,6.53c-2.6-0.47-2.83,1.6-2.67,3.5c0.14,1.58-0.82,4.28,2.11,3.87
		c6.57-0.91,4.65,3.34,3.94,6.41c-0.59,2.55,0.54,6.84-4.66,6.14c-2.3-0.31-4.11-0.06-3.94,3.17c0.13,2.54,0.12,4.57,3.55,4.09
		c2.38-0.33,2.7,1.14,2.31,3.04c-0.26,1.27-0.38,2.59-0.77,3.82c-1.28,4.01,0.43,4.85,4.18,4.72c3.13-0.11,3.17-1.95,3.54-4.09
		c0.43-2.48-0.16-6.11,2.11-7.03c2.64-1.07,6.32-1.03,9.03-0.05c2.61,0.95,0.58,4.04,0.4,6.07c-0.4,4.51,1.56,6.55,5.61,4.83
		c2.61-1.11,2.12-4.08,2.31-6.31c0.31-3.71,1.63-5.75,5.71-5.07c2.54,0.42,3.84-0.41,3.84-3.38c0-2.92-0.81-4.25-3.87-3.9
		c-1.04,0.12-2.89,0.33-2.84-1.05c0.13-3.37,0.45-6.84,1.4-10.05c0.71-2.4,3.37-1.13,5.14-1.23c1.89-0.11,2.8-0.81,2.46-2.62
		c-0.32-1.69,1.28-4.82-1.63-4.75c-5.98,0.16-4-3.26-3.49-6.3c0.82-4.82-0.29-5.8-5.05-4.98c-3.2,0.55-2.29,3.12-2.62,4.97
		C345.94,231.5,345.53,235.43,340.67,233.74z"/>
	<path class="st5" d="M326.27,207.02c-0.27,1.03-1.06,1.56-1.92,2.05c-11.5,6.61-22.99,13.23-34.47,19.86
		c-0.88,0.51-1.77,0.77-2.77,0.59c-7.75-15-25.38-23.14-44.56-20.55c-28.88,3.9-45.58,40.22-29.62,64.42
		c8.21,14.36,20.8,21.46,37.13,21.53c16.33,0.06,28.93-7.02,37.24-21.29c1.18-0.44,2.14-0.03,3.18,0.58
		c11.44,6.66,22.91,13.27,34.34,19.94c0.64,0.37,1.05,1.16,1.56,1.75c-9.41,15.07-21.68,27.08-37.79,34.86
		c-40.32,19.47-88.19,5.9-112.47-31.81c-0.69-1.07-1.49-2.08-2.24-3.11c-5.6-11.23-9.82-22.79-11.03-35.48
		c-2.07-21.62,2.92-41.42,15.46-58.89c19.69-27.43,47.06-40,80.52-37.09c27.8,2.42,49.49,16.42,65.15,39.59
		C324.69,205.02,325.5,206,326.27,207.02z"/>
	<path class="st2" d="M212.92,273.4c-15.95-24.21,0.75-60.52,29.62-64.42c19.18-2.59,36.81,5.54,44.56,20.55
		c-3.89,4.75-9.82,6.42-14.66,9.73c-6.64,4.54-14.58,7.02-20.47,12.78c-1.35-0.2-2.56,0.19-3.72,0.86
		C236.48,259.73,224.7,266.57,212.92,273.4z"/>
	<path class="st3" d="M212.92,273.4c11.78-6.84,23.56-13.67,35.33-20.51c1.16-0.67,2.37-1.06,3.72-0.86
		c9.66,6.72,20.24,11.87,30.24,18.02c1.77,1.09,3.4,2.39,5.09,3.6c-8.32,14.26-20.91,21.35-37.24,21.29
		C233.72,294.87,221.13,287.77,212.92,273.4z"/>
	<path class="st6" d="M340.67,233.74c4.87,1.69,5.27-2.24,5.95-6.09c0.33-1.85-0.58-4.42,2.62-4.97c4.76-0.82,5.87,0.16,5.05,4.98
		c-0.52,3.04-2.5,6.46,3.49,6.3c2.91-0.08,1.31,3.06,1.63,4.75c0.34,1.81-0.57,2.52-2.46,2.62c-1.77,0.1-4.43-1.17-5.14,1.23
		c-0.95,3.22-1.27,6.68-1.4,10.05c-0.05,1.38,1.8,1.17,2.84,1.05c3.06-0.35,3.87,0.98,3.87,3.9c0,2.97-1.31,3.8-3.84,3.38
		c-4.08-0.68-5.4,1.36-5.71,5.07c-0.19,2.23,0.3,5.2-2.31,6.31c-4.05,1.72-6.01-0.32-5.61-4.83c0.18-2.03,2.22-5.13-0.4-6.07
		c-2.71-0.98-6.39-1.02-9.03,0.05c-2.27,0.92-1.69,4.55-2.11,7.03c-0.37,2.14-0.41,3.98-3.54,4.09c-3.75,0.13-5.46-0.71-4.18-4.72
		c0.39-1.23,0.51-2.54,0.77-3.82c0.39-1.91,0.06-3.37-2.31-3.04c-3.43,0.47-3.42-1.55-3.55-4.09c-0.17-3.23,1.63-3.48,3.94-3.17
		c5.19,0.7,4.07-3.59,4.66-6.14c0.71-3.07,2.63-7.32-3.94-6.41c-2.93,0.4-1.97-2.3-2.11-3.87c-0.17-1.91,0.06-3.97,2.67-3.5
		c5.47,0.99,6.57-2.04,6.97-6.53c0.15-1.68-0.43-4.37,2.94-4.64c4.87-0.39,5.43,0.03,4.63,5.02
		C334.05,233.74,334.05,233.74,340.67,233.74z M338.81,241.15c-6.64-0.01-7.81,1.67-7.9,10.11c-0.05,4.67,3.43,2.43,5.21,2.51
		c6.69,0.3,7.38-0.86,7.74-9.75C344.08,238.93,340.19,242.2,338.81,241.15z"/>
	<path class="st7" d="M338.81,241.15c1.38,1.05,5.27-2.22,5.06,2.87c-0.36,8.89-1.05,10.04-7.74,9.75
		c-1.78-0.08-5.26,2.16-5.21-2.51C331,242.82,332.17,241.14,338.81,241.15z"/>
</g>
<rect class="st0" width="500" height="500"/>
<g>
	<path class="st8" d="M483.45,234.79c0,8.05,0,16.1,0,24.15c-0.59,0.32-0.41,0.91-0.43,1.39c-0.4,7.3-1.18,14.55-2.33,21.76
		c-5.66,35.44-18.85,67.83-39.66,97.08c-6.61,9.3-13.78,18.15-21.91,26.19c-0.78-0.89-1.52-1.83-2.36-2.67
		c-39.21-39.23-78.43-78.44-117.64-117.67c-0.83-0.83-1.88-1.5-2.15-2.78c8.34-0.02,16.67-0.07,25.01-0.02
		c1.46,0.01,1.91-0.39,1.87-1.86c-0.09-3.2-0.15-6.41,0.05-9.6c0.14-2.25-0.41-2.97-2.83-2.95c-13.25,0.11-26.5,0.01-39.74-0.02
		c-1.75-2.92-4.5-4.91-6.81-7.31c-1.32-1.37-2.44-3.04-4.32-3.8c-0.03-10.5,0-21.01-0.15-31.51c-0.03-2.08,0.56-2.55,2.57-2.54
		c14.08,0.09,28.17,0.01,42.25,0.09c1.89,0.01,2.4-0.53,2.31-2.36c-0.15-3.05-0.15-6.11,0-9.16c0.09-1.82-0.4-2.38-2.3-2.37
		c-14.16,0.08-28.32,0.01-42.47,0.09c-1.83,0.01-2.37-0.4-2.35-2.3c0.09-12.82,0.1-25.63-0.01-38.45c-0.02-2.17,0.54-2.7,2.69-2.68
		c15.2,0.1,30.4,0.02,45.6,0.1c1.87,0.01,2.42-0.5,2.33-2.36c-0.15-3.05-0.14-6.11,0-9.16c0.08-1.79-0.35-2.42-2.29-2.41
		c-20.57,0.07-41.13,0.06-61.7,0.01c-1.72,0-2.26,0.4-2.25,2.2c0.09,11.18,0.05,22.35,0.04,33.53c-0.01,17.44-0.04,34.87-0.05,52.31
		c-1.12-0.21-1.73-1.11-2.46-1.83c-9.68-9.66-19.34-19.34-29.02-29c-0.68-0.68-1.26-1.48-2.22-1.82c-0.03-0.89-0.1-1.78-0.1-2.67
		c-0.01-16.81-0.03-33.62,0.03-50.44c0.01-1.68-0.36-2.37-2.2-2.29c-3.49,0.15-7,0.19-10.48-0.01c-2.2-0.12-2.7,0.59-2.68,2.72
		c0.08,12.05,0.01,24.1-0.02,36.15c-1.28-0.24-1.96-1.3-2.79-2.13c-34.76-34.75-69.52-69.5-104.28-104.25
		c-0.84-0.84-1.77-1.58-2.66-2.36c0.51-0.54,0.99-1.11,1.52-1.62c11.62-11,24.22-20.72,37.87-29.05
		c30.84-18.81,64.25-29.77,100.25-32.86c2.55-0.22,5.18,0.08,7.67-0.8c7.75,0,15.5,0,23.26,0c0.52,0.62,1.24,0.38,1.87,0.41
		c9.31,0.47,18.55,1.57,27.71,3.27c38.29,7.12,72.85,22.63,102.89,47.45c49.91,41.23,77.99,94.23,84.09,158.78
		C482.89,229.83,482.58,232.38,483.45,234.79z M388.26,224.08c0-18.7,0.03-37.4-0.05-56.1c-0.01-1.96,0.47-2.5,2.46-2.48
		c10.95,0.1,21.91-0.01,32.86,0.1c2.06,0.02,2.91-0.35,2.73-2.62c-0.23-2.81-0.19-5.67-0.01-8.49c0.14-2.17-0.38-2.86-2.74-2.86
		c-28.39,0.1-56.77,0.06-85.16,0.06c-0.45,0-0.9,0.04-1.34-0.01c-1.18-0.12-1.56,0.41-1.54,1.55c0.05,3.2,0.15,6.41-0.03,9.61
		c-0.12,2.09,0.4,2.78,2.64,2.75c10.8-0.13,21.61,0,32.41-0.11c2.06-0.02,2.57,0.54,2.56,2.57c-0.06,36.96-0.05,73.91-0.05,110.87
		c0,0.6,0.06,1.2-0.01,1.79c-0.14,1.21,0.4,1.51,1.54,1.5c3.72-0.06,7.45-0.13,11.17,0.02c1.97,0.08,2.62-0.38,2.61-2.51
		C388.22,261.18,388.26,242.63,388.26,224.08z"/>
	<path class="st9" d="M242.84,17.44c-2.49,0.88-5.12,0.58-7.67,0.8c-36,3.09-69.41,14.06-100.25,32.86
		c-13.66,8.33-26.26,18.05-37.87,29.05c-0.54,0.51-1.02,1.08-1.52,1.62c-0.29,0.22-0.62,0.41-0.88,0.67
		c-37.66,37.29-60.28,82.15-67.28,134.71c-3.7,27.82-2.32,55.51,4.46,82.76c14.83,59.59,48.2,106.17,99.64,139.59
		c29.11,18.91,61.15,30.09,95.65,34.24c23.04,2.77,45.97,2.12,68.76-2.08c38.17-7.04,72.37-22.83,102.57-47.22
		c7.3-5.9,14.36-12.08,20.66-19.07c8.13-8.04,15.29-16.89,21.91-26.19c20.81-29.25,33.99-61.64,39.66-97.08
		c1.15-7.21,1.94-14.47,2.33-21.76c0.03-0.49-0.16-1.07,0.43-1.39c0,71.62-0.01,143.24,0.04,214.86c0,1.61-0.26,2.1-2.01,2.1
		c-151.43-0.05-302.87-0.05-454.3,0c-1.81,0-2.17-0.36-2.17-2.17C25.05,322.36,25.05,171,24.99,19.64c0-1.99,0.53-2.24,2.33-2.24
		C99.16,17.45,171,17.44,242.84,17.44z"/>
	<path class="st9" d="M483.45,234.79c-0.87-2.41-0.56-4.96-0.79-7.44c-6.09-64.55-34.18-117.55-84.09-158.78
		c-30.04-24.81-64.59-40.32-102.89-47.45c-9.15-1.7-18.4-2.8-27.71-3.27c-0.63-0.03-1.36,0.21-1.87-0.41
		c71.78,0,143.56,0.01,215.34-0.04c1.68,0,2.06,0.38,2.05,2.05C483.44,91.23,483.45,163.01,483.45,234.79z"/>
	<path class="st10" d="M419.12,405.37c-6.31,6.98-13.36,13.17-20.66,19.07c-30.2,24.38-64.4,40.18-102.57,47.22
		c-22.79,4.2-45.72,4.86-68.76,2.08c-34.5-4.15-66.54-15.33-95.65-34.24c-51.44-33.42-84.81-80-99.64-139.59
		c-6.78-27.25-8.17-54.93-4.46-82.76c7-52.56,29.62-97.42,67.28-134.71c0.26-0.26,0.58-0.45,0.88-0.67
		c0.89,0.79,1.83,1.53,2.66,2.36c34.76,34.75,69.52,69.5,104.28,104.25c0.83,0.83,1.51,1.88,2.79,2.13
		c0.02,2.76,0.04,5.51,0.07,8.27c0.22,19.3-0.48,38.6,0.4,57.9c0.08,1.81,0.29,3.61,0.45,5.41c-1.04-0.94-1.65-2.02-2.32-3.06
		c-22.51-35.29-45.03-70.58-67.52-105.88c-0.68-1.07-1.43-1.49-2.7-1.47c-5.07,0.07-10.14,0.03-15.2,0.03c-2.91,0-2.91,0-2.91,2.88
		c0,41.59,0,83.17,0,124.76c0,0.37,0.04,0.75-0.01,1.12c-0.17,1.38,0.43,1.79,1.78,1.76c3.8-0.08,7.61-0.13,11.4,0.02
		c1.86,0.07,2.2-0.61,2.2-2.29c-0.06-14.31,0.03-28.62-0.05-42.93c-0.11-20.42,0.37-40.84-0.27-61.25
		c-0.06-1.83-0.25-3.65-0.38-5.48c0.53-0.03,0.69,0.23,0.79,0.51c1.59,4.14,4.08,7.76,6.46,11.46
		c21.06,32.68,42.14,65.35,63.15,98.07c0.93,1.45,1.89,1.96,3.57,1.92c4.54-0.12,9.1-0.16,13.64,0.01c2.2,0.08,2.87-0.43,2.86-2.77
		c-0.1-23.03-0.06-46.06-0.05-69.09c0-1.12,0.06-2.23,0.1-3.35c0.96,0.34,1.54,1.14,2.22,1.82c9.68,9.66,19.34,19.34,29.02,29
		c0.73,0.72,1.34,1.62,2.46,1.83c0.02,13.33,0.08,26.66,0.01,39.98c-0.01,2.04,0.52,2.57,2.56,2.56
		c13.33-0.08,26.66-0.01,39.98,0.01c0.27,1.27,1.32,1.95,2.15,2.78c39.21,39.23,78.43,78.44,117.64,117.67
		C417.6,403.54,418.33,404.48,419.12,405.37z M334.98,364.04c-3.11,2.24-6.33,3.68-9.9,4.32c-9.04,1.6-15.91-3.18-16.91-11.82
		c-0.31-2.71-0.26-2.77,2.42-2.77c8.5,0,16.99-0.06,25.49,0.04c1.93,0.02,2.46-0.57,2.26-2.41c-0.21-1.84,0.03-3.74-0.25-5.57
		c-1.02-6.84-3.76-12.58-10.67-15.31c-7.52-2.97-16.59-0.46-21.61,5.87c-6.26,7.9-7.01,20.34-1.84,29.28
		c2.11,3.65,5.11,6.3,9.07,7.55c7.23,2.27,14.26,1.51,20.93-2.19c0.58-0.32,1.24-0.62,1.23-1.44
		C335.17,367.83,335.4,366.05,334.98,364.04z M212.52,322.07c0-1.98-0.09-3.69,0.03-5.38c0.1-1.41-0.57-1.92-1.78-2.33
		c-4.88-1.69-9.9-2.04-14.99-1.77c-8.39,0.45-15.57,3.72-20.8,10.27c-8.88,11.12-9.76,23.48-4.36,36.36
		c2.32,5.52,6.38,9.75,11.84,12.31c9.57,4.48,19.22,3.72,28.82-0.07c0.77-0.31,1.19-0.75,1.17-1.65c-0.05-1.7-0.02-3.4-0.02-5.03
		c-0.64-0.28-1.01,0.06-1.39,0.25c-5.1,2.66-10.56,3.51-16.24,3.15c-6.68-0.42-11.93-3.41-15.69-8.95
		c-3.51-5.16-4.43-10.96-4.15-17.05c0.57-12.52,9.6-24.98,26.03-23.43C204.96,319.12,208.65,320.33,212.52,322.07z M220.73,351.92
		c0.05,1.12,0.07,2.23,0.15,3.35c0.72,9.32,7.19,16.82,16.17,18.75c9.46,2.04,18.66-2.1,23.16-10.38c2.28-4.19,2.88-8.68,2.8-13.38
		c-0.25-14.61-10.85-24.32-26.97-20.31C226.21,332.39,220.7,340.68,220.73,351.92z M281.25,337.32c-0.03-0.65-0.09-1.3-0.1-1.95
		c-0.05-4.91-0.05-4.79-4.89-4.95c-2.09-0.07-2.43,0.69-2.41,2.54c0.07,11.76,0.04,23.52,0.04,35.28c0,5.27,0,5.22,5.27,5.22
		c1.55,0,2.05-0.45,2.03-2.01c-0.07-6.85-0.01-13.7-0.05-20.54c-0.03-3.66,0.78-7.08,2.66-10.23c2.16-3.62,5.83-5.24,9.9-4.35
		c0.85,0.19,1.67,0.51,2.76,0.85c0-2.03-0.03-3.87,0.01-5.71c0.02-1.09-0.62-1.35-1.52-1.51c-3.68-0.68-6.93,0.11-9.73,2.64
		C283.71,333.98,282.72,335.72,281.25,337.32z M68.38,273.94c0.03,5.61,4.51,10.08,10.09,10.04c5.66-0.03,10.17-4.64,10.1-10.31
		c-0.06-5.49-4.66-10.08-10.14-10.12C72.92,263.52,68.35,268.24,68.38,273.94z"/>
	<path class="st11" d="M220.71,207.05c-0.03,1.12-0.1,2.23-0.1,3.35c-0.01,23.03-0.04,46.06,0.05,69.09
		c0.01,2.33-0.66,2.85-2.86,2.77c-4.54-0.17-9.09-0.13-13.64-0.01c-1.68,0.04-2.64-0.47-3.57-1.92
		c-21.01-32.71-42.09-65.38-63.15-98.07c-2.38-3.69-4.88-7.32-6.46-11.46c-0.11-0.28-0.26-0.54-0.79-0.51
		c0.13,1.83,0.33,3.65,0.38,5.48c0.65,20.42,0.16,40.84,0.27,61.25c0.08,14.31-0.01,28.62,0.05,42.93c0.01,1.68-0.34,2.36-2.2,2.29
		c-3.79-0.15-7.6-0.1-11.4-0.02c-1.36,0.03-1.95-0.39-1.78-1.76c0.05-0.37,0.01-0.74,0.01-1.12c0-41.59,0-83.17,0-124.76
		c0-2.88,0-2.88,2.91-2.88c5.07,0,10.14,0.04,15.2-0.03c1.27-0.02,2.02,0.4,2.7,1.47c22.49,35.31,45.01,70.59,67.52,105.88
		c0.66,1.04,1.28,2.12,2.32,3.06c-0.15-1.8-0.36-3.6-0.45-5.41c-0.88-19.29-0.18-38.6-0.4-57.9c-0.03-2.76-0.05-5.51-0.07-8.27
		c0.02-12.05,0.1-24.1,0.02-36.15c-0.01-2.13,0.48-2.84,2.68-2.72c3.49,0.19,6.99,0.16,10.48,0.01c1.84-0.08,2.2,0.61,2.2,2.29
		c-0.05,16.81-0.03,33.62-0.03,50.44C220.62,205.27,220.68,206.16,220.71,207.05z"/>
	<path class="st12" d="M296.96,282.25c-13.33-0.02-26.66-0.08-39.98-0.01c-2.04,0.01-2.57-0.52-2.56-2.56
		c0.08-13.33,0.01-26.66-0.01-39.98c0.02-17.44,0.04-34.87,0.05-52.31c0.01-11.18,0.04-22.36-0.04-33.53
		c-0.01-1.8,0.53-2.21,2.25-2.2c20.57,0.06,41.13,0.06,61.7-0.01c1.94-0.01,2.37,0.63,2.29,2.41c-0.14,3.05-0.15,6.11,0,9.16
		c0.09,1.85-0.46,2.37-2.33,2.36c-15.2-0.08-30.4,0-45.6-0.1c-2.16-0.01-2.71,0.52-2.69,2.68c0.11,12.82,0.1,25.63,0.01,38.45
		c-0.01,1.9,0.53,2.31,2.35,2.3c14.16-0.08,28.32,0,42.47-0.09c1.9-0.01,2.39,0.55,2.3,2.37c-0.15,3.05-0.15,6.11,0,9.16
		c0.09,1.83-0.42,2.38-2.31,2.36c-14.08-0.08-28.17,0-42.25-0.09c-2.01-0.01-2.6,0.46-2.57,2.54c0.14,10.5,0.12,21.01,0.15,31.51
		c-0.03,3.27-0.03,6.54-0.11,9.81c-0.03,1.07,0.38,1.42,1.42,1.4c3.27-0.07,6.54-0.07,9.81-0.1c13.25,0.03,26.5,0.13,39.74,0.02
		c2.42-0.02,2.97,0.71,2.83,2.95c-0.2,3.19-0.15,6.4-0.05,9.6c0.04,1.46-0.41,1.87-1.87,1.86
		C313.64,282.18,305.3,282.24,296.96,282.25z"/>
	<path class="st13" d="M388.26,224.08c0,18.55-0.04,37.11,0.05,55.66c0.01,2.12-0.64,2.59-2.61,2.51
		c-3.72-0.15-7.45-0.08-11.17-0.02c-1.13,0.02-1.68-0.29-1.54-1.5c0.07-0.59,0.01-1.19,0.01-1.79c0-36.96-0.02-73.91,0.05-110.87
		c0-2.04-0.51-2.59-2.56-2.57c-10.8,0.11-21.61-0.02-32.41,0.11c-2.24,0.03-2.76-0.66-2.64-2.75c0.18-3.19,0.08-6.41,0.03-9.61
		c-0.02-1.15,0.36-1.68,1.54-1.55c0.44,0.05,0.89,0.01,1.34,0.01c28.39,0,56.78,0.03,85.16-0.06c2.36-0.01,2.88,0.69,2.74,2.86
		c-0.19,2.82-0.22,5.67,0.01,8.49c0.18,2.27-0.67,2.64-2.73,2.62c-10.95-0.1-21.91,0.01-32.86-0.1c-1.99-0.02-2.47,0.52-2.46,2.48
		C388.29,186.67,388.26,205.38,388.26,224.08z"/>
	<path class="st14" d="M281.32,267.8c-3.27,0.03-6.54,0.03-9.81,0.1c-1.05,0.02-1.45-0.32-1.42-1.4c0.08-3.27,0.08-6.54,0.11-9.81
		c1.88,0.76,2.99,2.42,4.32,3.8C276.81,262.89,279.57,264.88,281.32,267.8z"/>
	<path class="st15" d="M334.98,364.04c0.41,2.02,0.19,3.79,0.21,5.55c0.01,0.82-0.65,1.12-1.23,1.44c-6.66,3.7-13.7,4.46-20.93,2.19
		c-3.95-1.24-6.96-3.89-9.07-7.55c-5.17-8.94-4.42-21.38,1.84-29.28c5.02-6.34,14.09-8.84,21.61-5.87
		c6.91,2.73,9.66,8.46,10.67,15.31c0.27,1.83,0.04,3.73,0.25,5.57c0.21,1.84-0.33,2.43-2.26,2.41c-8.49-0.1-16.99-0.05-25.49-0.04
		c-2.68,0-2.73,0.06-2.42,2.77c1,8.65,7.87,13.42,16.91,11.82C328.66,367.72,331.87,366.28,334.98,364.04z M319.62,347.98
		c0-0.01,0-0.02,0-0.03c3.27,0,6.55,0,9.82,0c0.81,0,1.59,0.12,1.69-1.15c0.39-4.62-3.23-9.84-7.75-11.02
		c-6.93-1.8-14.93,4.06-15.22,11.11c-0.05,1.24,0.69,1.09,1.41,1.09C312.92,347.99,316.27,347.98,319.62,347.98z"/>
	<path class="st15" d="M212.52,322.07c-3.86-1.74-7.55-2.95-11.53-3.32c-16.43-1.54-25.46,10.91-26.03,23.43
		c-0.28,6.09,0.65,11.89,4.15,17.05c3.76,5.54,9.01,8.53,15.69,8.95c5.68,0.36,11.14-0.49,16.24-3.15c0.37-0.19,0.75-0.53,1.39-0.25
		c0,1.63-0.04,3.33,0.02,5.03c0.03,0.9-0.39,1.35-1.17,1.65c-9.6,3.8-19.25,4.56-28.82,0.07c-5.46-2.56-9.52-6.79-11.84-12.31
		c-5.41-12.88-4.52-25.24,4.36-36.36c5.23-6.55,12.41-9.82,20.8-10.27c5.09-0.27,10.12,0.08,14.99,1.77
		c1.2,0.42,1.88,0.92,1.78,2.33C212.42,318.38,212.52,320.09,212.52,322.07z"/>
	<path class="st16" d="M220.73,351.92c-0.03-11.24,5.48-19.53,15.31-21.98c16.13-4.01,26.72,5.7,26.97,20.31
		c0.08,4.7-0.52,9.19-2.8,13.38c-4.51,8.29-13.7,12.42-23.16,10.38c-8.97-1.93-15.44-9.43-16.17-18.75
		C220.79,354.16,220.78,353.04,220.73,351.92z M255.93,352.5c0-4.81-0.53-7.35-2.05-10.31c-4.25-8.25-16.66-9.38-22.37-2.05
		c-4.92,6.32-4.93,17.27-0.14,23.65c5.09,6.78,18.68,7,22.71-2.15C255.41,358.57,256.11,355.45,255.93,352.5z"/>
	<path class="st17" d="M281.25,337.32c1.47-1.6,2.46-3.35,3.96-4.71c2.8-2.53,6.05-3.32,9.73-2.64c0.9,0.17,1.54,0.42,1.52,1.51
		c-0.04,1.84-0.01,3.68-0.01,5.71c-1.09-0.34-1.91-0.67-2.76-0.85c-4.07-0.89-7.75,0.74-9.9,4.35c-1.88,3.15-2.69,6.56-2.66,10.23
		c0.05,6.85-0.02,13.7,0.05,20.54c0.02,1.56-0.48,2.01-2.03,2.01c-5.27,0-5.27,0.06-5.27-5.22c0-11.76,0.04-23.52-0.04-35.28
		c-0.01-1.85,0.32-2.61,2.41-2.54c4.84,0.15,4.84,0.03,4.89,4.95C281.16,336.03,281.22,336.67,281.25,337.32z"/>
	<path class="st18" d="M68.38,273.94c-0.03-5.7,4.54-10.42,10.05-10.38c5.48,0.04,10.08,4.63,10.14,10.12
		c0.07,5.67-4.44,10.27-10.1,10.31C72.9,284.02,68.41,279.56,68.38,273.94z"/>
	<path class="st19" d="M319.62,347.98c-3.35,0-6.69,0.01-10.04,0c-0.73,0-1.47,0.15-1.41-1.09c0.29-7.05,8.29-12.91,15.22-11.11
		c4.52,1.18,8.14,6.4,7.75,11.02c-0.11,1.27-0.88,1.15-1.69,1.15c-3.27,0-6.55,0-9.82,0C319.62,347.96,319.62,347.97,319.62,347.98z
		"/>
	<path class="st20" d="M255.93,352.5c0.18,2.95-0.51,6.07-1.86,9.14c-4.03,9.15-17.62,8.93-22.71,2.15
		c-4.79-6.38-4.78-17.33,0.14-23.65c5.71-7.33,18.13-6.2,22.37,2.05C255.4,345.15,255.93,347.7,255.93,352.5z"/>
</g>
</svg>
