<?xml version="1.0" encoding="utf-8"?>
<!-- Generator: Adobe Illustrator 23.0.5, SVG Export Plug-In . SVG Version: 6.00 Build 0)  -->
<svg version="1.1" id="Capa_1" xmlns="http://www.w3.org/2000/svg" xmlns:xlink="http://www.w3.org/1999/xlink" x="0px" y="0px"
	 viewBox="0 0 500 500" style="enable-background:new 0 0 500 500;" xml:space="preserve">
<style type="text/css">
	.st0{display:none;}
	.st1{display:none;fill:#FFFFFF;}
	.st2{fill:#953E9B;}
	.st3{fill:#69227A;}
	.st4{fill:#832D8F;}
	.st5{fill:#FDFCFE;}
	.st6{fill:#FBF8FB;}
	.st7{fill:#853191;}
</style>
<g>
	<rect y="4.04" class="st0" width="500" height="495.96"/>
	<path class="st1" d="M250.46,500.98c-81.85,0-163.7-0.02-245.54,0.09c-3.28,0-4.03-0.56-4.03-3.97
		C0.99,333.08,0.99,169.06,0.86,5.03c0-3.78,1.09-4.13,4.36-4.13C169.08,0.99,332.94,0.99,496.8,0.89c3.44,0,4.28,0.61,4.28,4.21
		c-0.12,163.86-0.12,327.72,0,491.58c0,3.87-1.1,4.39-4.59,4.38C414.48,500.95,332.47,500.98,250.46,500.98z M378.94,325.23
		c2.42-2.91,2.96-6.43,3.02-10.01c0.12-6.83,0.13-13.67,0.13-20.5c0.01-34.01,0.02-68.02-0.02-102.03
		c-0.01-5.18,0.14-10.45-3.29-14.9c-2.13-5.37-6.74-8.18-11.4-10.86c-34.36-19.82-68.75-39.58-103.1-59.39
		c-9.25-5.34-18.48-5.56-27.76-0.22c-35.23,20.26-70.45,40.52-105.65,60.83c-8.29,4.78-12.62,12.16-12.64,21.68
		c-0.1,41.33-0.07,82.65,0,123.98c0.01,4.06,0.55,8.11,3.25,11.48c1.47,4.47,4.88,7.3,8.69,9.5
		c35.72,20.67,71.48,41.28,107.28,61.81c8.43,4.83,17.14,4.79,25.55-0.04c35.66-20.45,71.28-40.98,106.87-61.56
		C373.81,332.71,377.42,329.88,378.94,325.23z"/>
	<path class="st2" d="M121.47,325.28c-2.69-3.37-3.24-7.42-3.25-11.48c-0.06-41.33-0.09-82.65,0-123.98
		c0.02-9.52,4.35-16.89,12.64-21.68c35.2-20.31,70.42-40.57,105.65-60.83c9.28-5.34,18.51-5.12,27.76,0.22
		c34.36,19.82,68.74,39.58,103.1,59.39c4.65,2.68,9.26,5.5,11.4,10.86c-12.19,7.09-24.32,14.3-36.61,21.21
		c-5.17,2.9-9.72,7.11-15.9,8.02c-0.77-1.02-1.58-2-2.29-3.06c-15.66-23.17-37.35-37.17-65.15-39.59
		c-33.46-2.91-60.83,9.66-80.52,37.09c-12.54,17.47-17.53,37.27-15.46,58.89c1.21,12.69,5.43,24.25,11.03,35.48
		c-10.38,5.97-20.67,12.12-31.18,17.86C135.62,317.57,129.16,322.56,121.47,325.28z"/>
	<path class="st3" d="M121.47,325.28c7.69-2.72,14.15-7.71,21.22-11.57c10.51-5.74,20.8-11.89,31.18-17.86
		c0.75,1.04,1.55,2.04,2.24,3.11c24.27,37.71,72.14,51.28,112.47,31.81c16.11-7.78,28.38-19.79,37.79-34.86
		c8.57,4.9,17.05,9.99,25.75,14.65c8.99,4.81,17.2,11.03,26.82,14.68c-1.52,4.65-5.13,7.48-9.08,9.76
		c-35.59,20.58-71.21,41.11-106.87,61.56c-8.42,4.83-17.12,4.88-25.55,0.04c-35.8-20.53-71.56-41.14-107.28-61.81
		C126.36,332.58,122.94,329.75,121.47,325.28z"/>
	<path class="st4" d="M378.94,325.23c-9.62-3.65-17.84-9.86-26.82-14.68c-8.7-4.66-17.17-9.75-25.75-14.65
		c-0.52-0.59-0.92-1.38-1.56-1.75c-11.43-6.67-22.9-13.27-34.34-19.94c-1.04-0.61-2-1.01-3.18-0.57c-1.69-1.2-3.32-2.51-5.09-3.6
		c-9.99-6.15-20.58-11.3-30.24-18.02c5.89-5.75,13.83-8.23,20.47-12.78c4.84-3.31,10.78-4.98,14.66-9.73c1,0.17,1.89-0.08,2.77-0.59
		c11.48-6.64,22.98-13.25,34.47-19.86c0.86-0.49,1.65-1.01,1.92-2.05c6.19-0.91,10.74-5.12,15.9-8.02
		c12.29-6.91,24.42-14.12,36.61-21.21c3.43,4.45,3.29,9.71,3.29,14.9c0.03,34.01,0.03,68.02,0.02,102.03c0,6.83,0,13.67-0.13,20.5
		C381.9,318.8,381.36,322.32,378.94,325.23z M340.67,233.74c-6.62,0-6.62,0-5.64-6.09c0.8-4.99,0.24-5.41-4.63-5.02
		c-3.37,0.27-2.8,2.96-2.94,4.64c-0.39,4.49-1.49,7.52-6.97,6.53c-2.6-0.47-2.83,1.6-2.67,3.5c0.14,1.58-0.82,4.28,2.11,3.87
		c6.57-0.91,4.65,3.34,3.94,6.41c-0.59,2.55,0.54,6.84-4.66,6.14c-2.3-0.31-4.11-0.06-3.94,3.17c0.13,2.54,0.12,4.57,3.55,4.09
		c2.38-0.33,2.7,1.14,2.31,3.04c-0.26,1.27-0.38,2.59-0.77,3.82c-1.28,4.01,0.43,4.85,4.18,4.72c3.13-0.11,3.17-1.95,3.54-4.09
		c0.43-2.48-0.16-6.11,2.11-7.03c2.64-1.07,6.32-1.03,9.03-0.05c2.61,0.95,0.58,4.04,0.4,6.07c-0.4,4.51,1.56,6.55,5.61,4.83
		c2.61-1.11,2.12-4.08,2.31-6.31c0.31-3.71,1.63-5.75,5.71-5.07c2.54,0.42,3.84-0.41,3.84-3.38c0-2.92-0.81-4.25-3.87-3.9
		c-1.04,0.12-2.89,0.33-2.84-1.05c0.13-3.37,0.45-6.84,1.4-10.05c0.71-2.4,3.37-1.13,5.14-1.23c1.89-0.11,2.8-0.81,2.46-2.62
		c-0.32-1.69,1.28-4.82-1.63-4.75c-5.98,0.16-4-3.26-3.49-6.3c0.82-4.82-0.29-5.8-5.05-4.98c-3.2,0.55-2.29,3.12-2.62,4.97
		C345.94,231.5,345.53,235.43,340.67,233.74z"/>
	<path class="st5" d="M326.27,207.02c-0.27,1.03-1.06,1.56-1.92,2.05c-11.5,6.61-22.99,13.23-34.47,19.86
		c-0.88,0.51-1.77,0.77-2.77,0.59c-7.75-15-25.38-23.14-44.56-20.55c-28.88,3.9-45.58,40.22-29.62,64.42
		c8.21,14.36,20.8,21.46,37.13,21.53c16.33,0.06,28.93-7.02,37.24-21.29c1.18-0.44,2.14-0.03,3.18,0.58
		c11.44,6.66,22.91,13.27,34.34,19.94c0.64,0.37,1.05,1.16,1.56,1.75c-9.41,15.07-21.68,27.08-37.79,34.86
		c-40.32,19.47-88.19,5.9-112.47-31.81c-0.69-1.07-1.49-2.08-2.24-3.11c-5.6-11.23-9.82-22.79-11.03-35.48
		c-2.07-21.62,2.92-41.42,15.46-58.89c19.69-27.43,47.06-40,80.52-37.09c27.8,2.42,49.49,16.42,65.15,39.59
		C324.69,205.02,325.5,206,326.27,207.02z"/>
	<path class="st2" d="M212.92,273.4c-15.95-24.21,0.75-60.52,29.62-64.42c19.18-2.59,36.81,5.54,44.56,20.55
		c-3.89,4.75-9.82,6.42-14.66,9.73c-6.64,4.54-14.58,7.02-20.47,12.78c-1.35-0.2-2.56,0.19-3.72,0.86
		C236.48,259.73,224.7,266.57,212.92,273.4z"/>
	<path class="st3" d="M212.92,273.4c11.78-6.84,23.56-13.67,35.33-20.51c1.16-0.67,2.37-1.06,3.72-0.86
		c9.66,6.72,20.24,11.87,30.24,18.02c1.77,1.09,3.4,2.39,5.09,3.6c-8.32,14.26-20.91,21.35-37.24,21.29
		C233.72,294.87,221.13,287.77,212.92,273.4z"/>
	<path class="st6" d="M340.67,233.74c4.87,1.69,5.27-2.24,5.95-6.09c0.33-1.85-0.58-4.42,2.62-4.97c4.76-0.82,5.87,0.16,5.05,4.98
		c-0.52,3.04-2.5,6.46,3.49,6.3c2.91-0.08,1.31,3.06,1.63,4.75c0.34,1.81-0.57,2.52-2.46,2.62c-1.77,0.1-4.43-1.17-5.14,1.23
		c-0.95,3.22-1.27,6.68-1.4,10.05c-0.05,1.38,1.8,1.17,2.84,1.05c3.06-0.35,3.87,0.98,3.87,3.9c0,2.97-1.31,3.8-3.84,3.38
		c-4.08-0.68-5.4,1.36-5.71,5.07c-0.19,2.23,0.3,5.2-2.31,6.31c-4.05,1.72-6.01-0.32-5.61-4.83c0.18-2.03,2.22-5.13-0.4-6.07
		c-2.71-0.98-6.39-1.02-9.03,0.05c-2.27,0.92-1.69,4.55-2.11,7.03c-0.37,2.14-0.41,3.98-3.54,4.09c-3.75,0.13-5.46-0.71-4.18-4.72
		c0.39-1.23,0.51-2.54,0.77-3.82c0.39-1.91,0.06-3.37-2.31-3.04c-3.43,0.47-3.42-1.55-3.55-4.09c-0.17-3.23,1.63-3.48,3.94-3.17
		c5.19,0.7,4.07-3.59,4.66-6.14c0.71-3.07,2.63-7.32-3.94-6.41c-2.93,0.4-1.97-2.3-2.11-3.87c-0.17-1.91,0.06-3.97,2.67-3.5
		c5.47,0.99,6.57-2.04,6.97-6.53c0.15-1.68-0.43-4.37,2.94-4.64c4.87-0.39,5.43,0.03,4.63,5.02
		C334.05,233.74,334.05,233.74,340.67,233.74z M338.81,241.15c-6.64-0.01-7.81,1.67-7.9,10.11c-0.05,4.67,3.43,2.43,5.21,2.51
		c6.69,0.3,7.38-0.86,7.74-9.75C344.08,238.93,340.19,242.2,338.81,241.15z"/>
	<path class="st7" d="M338.81,241.15c1.38,1.05,5.27-2.22,5.06,2.87c-0.36,8.89-1.05,10.04-7.74,9.75
		c-1.78-0.08-5.26,2.16-5.21-2.51C331,242.82,332.17,241.14,338.81,241.15z"/>
</g>
</svg>
